<?xml version="1.0" encoding="utf-8"?>
<!-- Generator: Adobe Illustrator 28.0.0, SVG Export Plug-In . SVG Version: 6.00 Build 0)  -->
<svg version="1.1" id="Layer_1" xmlns="http://www.w3.org/2000/svg" xmlns:xlink="http://www.w3.org/1999/xlink" x="0px" y="0px"
	 viewBox="0 0 484 340" style="enable-background:new 0 0 484 340;" xml:space="preserve">
<path d="M344,318.5L93.5,68c-12.6-12.6-12.6-33.1,0-45.7l0.8-0.8c12.6-12.6,33.1-12.6,45.7,0L390.5,272c12.6,12.6,12.6,33.1,0,45.7
	l-0.8,0.8C377.1,331.2,356.6,331.2,344,318.5z"/>
<path d="M390.5,68L140,318.5c-12.6,12.6-33.1,12.6-45.7,0l-0.8-0.8c-12.6-12.6-12.6-33.1,0-45.7L344,21.5
	c12.6-12.6,33.1-12.6,45.7,0l0.8,0.8C403.2,34.9,403.2,55.4,390.5,68z"/>
</svg>
